<svg xmlns="http://www.w3.org/2000/svg" viewBox="0 0 180 180" width="180" height="180">
  <defs>
    <mask id="checkmark-cutout">
      <rect width="180" height="180" fill="white" />
      <path d="M 45 95 L 75 125 L 140 50" fill="none" stroke="black" stroke-width="24" stroke-linecap="round" stroke-linejoin="round" />
    </mask>
  </defs>

  <g stroke="#000000" stroke-width="10" stroke-linecap="round" stroke-linejoin="round" fill="none" mask="url(#checkmark-cutout)">
    <line x1="73" y1="36" x2="55" y2="15" />
    <line x1="107" y1="36" x2="125" y2="15" />

    <path d="M 55 75 L 30 75 L 20 90" />
    <path d="M 52 100 L 20 100" />
    <path d="M 65 120 L 40 120 L 40 140" />

    <path d="M 125 75 L 150 75 L 160 90" />
    <path d="M 128 100 L 160 100" />
    <path d="M 115 120 L 140 120 L 140 140" />

    <path d="M 65 58 C 45 90, 60 135, 90 135 C 120 135, 135 90, 115 58 Z" />
    <path d="M 65 58 A 25 25 0 0 1 115 58 Z" />
    <line x1="90" y1="58" x2="90" y2="135" />
  </g>

  <path d="M 45 95 L 75 125 L 140 50" fill="none" stroke="#000000" stroke-width="10" stroke-linecap="round" stroke-linejoin="round" />

  <g stroke="#000000" stroke-width="8" stroke-linecap="round" stroke-linejoin="round" fill="none">
    <path d="M 82 140 L 75 140 Q 65 140 65 148 Q 65 155 55 155 Q 65 155 65 162 Q 65 170 75 170 L 82 170" />
    <path d="M 98 140 L 105 140 Q 115 140 115 148 Q 115 155 125 155 Q 115 155 115 162 Q 115 170 105 170 L 98 170" />
  </g>
</svg>
